<svg version="1.2" xmlns="http://www.w3.org/2000/svg" viewBox="0 0 360 360" width="360" height="360">
	<title>delete-svg</title>
	<style>
		.s0 { fill: #ffffff;stroke: #ffffff } 
	</style>
	<g id="SVGRepo_bgCarrier">
	</g>
	<g id="SVGRepo_tracerCarrier">
	</g>
	<g id="SVGRepo_iconCarrier">
		<g id="Layer">
			<path id="Layer" fill-rule="evenodd" class="s0" d="m360 92.8c0 10.2-10.3 18.7-23.8 20.4v228.9c0 9.9-11.1 17.9-24.8 17.9h-262.8c-13.7 0-24.8-8-24.8-17.9v-228.9c-13.5-1.7-23.8-10.2-23.8-20.4 0-11.5 12.9-20.8 28.8-20.8h302.4c15.9 0 28.8 9.3 28.8 20.8zm-217.4 54.7c0-12.1-13.6-22-30.4-22-16.9 0-30.5 9.9-30.5 22v137.4c0 12.1 13.6 21.9 30.5 21.9 16.8 0 30.4-9.8 30.4-21.9zm135.7 0c0-12.2-13.6-22-30.5-22-16.8 0-30.4 9.8-30.4 22v137.3c0 12.1 13.6 22 30.4 22 16.9 0 30.5-9.9 30.5-22z"/>
			<path id="Layer" class="s0" d="m28.8 60.9h302.4c15.9 0 28.8-9.3 28.8-20.8 0-11.5-12.9-20.8-28.8-20.8h-58.1c-1-10.8-13.5-19.3-28.7-19.3h-128.8c-15.2 0-27.7 8.5-28.7 19.3h-58.1c-15.9 0-28.8 9.3-28.8 20.8 0 11.5 12.9 20.8 28.8 20.8z"/>
		</g>
	</g>
</svg>